<svg width="2552" height="772" viewBox="0 0 2552 772" fill="none" xmlns="http://www.w3.org/2000/svg">
<path d="M76.5333 50.8001C76.2667 51.2001 84.2667 66.2668 94.1333 84.1335C104.133 102 113.733 119.467 115.467 122.933L118.667 129.333H196.8C262.667 129.333 276.4 129.6 284.933 131.467C304.133 135.333 317.467 144.4 323.867 157.733C335.867 182.667 326.533 210.667 302.133 222.667C286.267 230.533 283.2 230.667 170.533 230.667H68V356V481.467L197.733 480.933C323.067 480.533 327.867 480.4 342 477.6C404 465.733 440 435.867 448.933 388.933C451.467 375.6 450.667 348.667 447.467 336.667C438.133 301.867 412.933 280.4 362.667 264.4C352 261.067 342.8 257.867 342.267 257.333C341.733 256.8 346.8 254.133 353.6 251.333C360.4 248.667 370.933 243.733 376.8 240.667C413.333 221.6 430.667 193.467 430.667 153.2C430.667 98.9334 392 61.6001 326.4 52.6668C314 51.0668 290.533 50.6668 194.267 50.4001C129.733 50.1335 76.8 50.4001 76.5333 50.8001ZM301.067 299.467C321.6 303.6 336.8 314.267 343.867 329.333C346.8 335.6 347.333 338.533 347.333 349.333C347.333 360.4 346.8 363.067 343.467 370.267C338.8 380.533 329.6 389.467 318.133 394.8C302.4 402.133 297.333 402.667 229.733 402.667H168V350V297.333H229.333C280.133 297.333 292.533 297.733 301.067 299.467Z" fill="white"/>
<path d="M1065.87 50.934C1065.47 51.4673 1069.33 59.8673 1074.4 69.6006C1079.47 79.334 1089.47 98.534 1096.53 112.267L1109.47 137.334H1190.4C1266.4 137.334 1272 137.467 1282.27 140.001C1308.4 146.267 1324.27 159.867 1330.93 181.734C1333.2 189.201 1333.47 193.201 1333.07 205.067C1332.27 222.134 1329.2 231.467 1320.8 241.734C1306.53 259.334 1283.6 268.001 1251.73 268.001H1238.67V310.267V352.667L1281.6 416.934L1324.4 481.334H1382.93C1415.07 481.334 1441.33 481.067 1441.33 480.667C1441.33 480.267 1418.67 446.801 1390.93 406.267C1363.2 365.734 1340.13 332.001 1339.6 331.201C1339.07 330.267 1342.93 328.001 1350 324.934C1393.6 306.534 1422 275.334 1432.93 234.001C1436.13 221.734 1436.4 218.401 1436.53 194.001C1436.53 169.467 1436.27 166.267 1433.07 154.001C1427.07 130.534 1418.4 114.801 1402.27 97.8673C1378.27 72.534 1342.8 57.0673 1296.67 52.0006C1281.6 50.4006 1066.8 49.334 1065.87 50.934Z" fill="white"/>
<path d="M1531.6 50.134C1531.07 50.6674 1530.67 108.001 1530.67 177.601V304.001H1581.33H1632V258.534C1632 232.267 1632.53 213.334 1633.2 213.601C1634.13 213.867 1704.93 304.134 1742.93 353.334C1747.07 358.801 1771.2 389.734 1796.27 422.001L1842.13 480.667L1889.07 481.067L1936 481.334V265.734V50.0007L1885.6 50.2673L1835.33 50.534L1834.93 180.001C1834.8 259.867 1834.13 309.334 1833.47 309.067C1832.4 308.801 1735.73 185.334 1650.27 75.0674L1631.33 50.6674H1583.73C1557.6 50.6674 1535.33 50.4007 1534.4 50.0007C1533.33 49.6007 1532.13 49.734 1531.6 50.134Z" fill="white"/>
<path d="M2205.33 52.0006C2204.8 53.0673 2187.07 94.8006 2166 144.667C2144.93 194.534 2120.4 252.667 2111.33 274.001C2102.4 295.201 2084.4 337.867 2071.33 368.667C2058.4 399.467 2042.67 436.667 2036.4 451.334C2030.13 466.001 2024.8 478.801 2024.4 479.601C2023.87 480.934 2035.07 481.334 2077.47 481.334H2131.33L2139.6 460.267C2176.53 366.001 2229.6 230.401 2250 178.001C2254.53 166.401 2258.8 156.667 2259.47 156.401C2260.13 156.267 2263.73 164.267 2267.6 174.401C2271.33 184.401 2282.67 213.601 2292.67 239.334C2302.8 264.934 2328 329.734 2348.8 383.201C2369.6 436.667 2386.8 480.667 2387.07 480.934C2387.33 481.201 2412.13 481.201 2442.27 481.067L2496.93 480.667L2487.6 458.667C2482.53 446.534 2471.07 419.201 2462 398.001C2453.07 376.667 2435.87 336.267 2424 308.001C2412.13 279.734 2397.47 244.934 2391.33 230.667C2385.2 216.401 2371.2 183.067 2360 156.667C2319.73 61.0673 2315.6 51.334 2315.33 50.934C2315.2 50.8006 2290.67 50.534 2260.8 50.2673C2213.6 50.0006 2206.27 50.2673 2205.33 52.0006Z" fill="white"/>
<path d="M728.667 52.8003C677.067 60.5336 633.201 82.267 599.867 116.934C566.534 151.467 547.467 190.534 540.534 238.667C537.734 258 538.667 289.2 542.534 308.267C558.001 384.4 611.334 445.467 684.267 470.4C710.534 479.467 719.067 480.667 755.334 480.667C783.867 480.534 788.667 480.267 800.001 477.6C848.267 466 889.601 441.067 919.201 405.467C942.534 377.467 958.934 343.067 966.267 307.334C968.134 297.867 968.667 289.2 968.667 266.667C968.534 234.934 966.667 222.134 958.401 198C936.134 133.467 886.801 84.267 822.801 62.8003C799.867 55.067 787.201 53.067 758.667 52.667C744.401 52.4003 730.934 52.5336 728.667 52.8003ZM827.467 126C827.867 127.867 828.001 146.267 827.601 167.067C827.067 199.734 826.667 205.734 824.267 213.334C820.934 224.4 819.067 228.4 813.734 237.067C811.067 241.2 809.467 245.2 810.001 246.534C811.067 250 808.401 262.4 805.067 269.2C799.601 280.4 771.867 306.134 757.734 312.934C753.601 315.067 753.467 314.934 744.667 308.8C739.201 304.934 735.201 303.067 734.134 303.6C733.201 304.267 730.667 306.8 728.534 309.334C718.134 321.6 716.001 329.2 716.001 354.267V373.334H753.867H791.734L792.267 357.6C792.801 344.134 793.334 340.934 796.534 333.734C800.934 324 811.601 313.2 820.534 309.2C827.067 306.4 841.601 304.134 853.734 304H861.334V266V228H844.667C835.467 228 828.001 227.734 828.001 227.467C828.001 227.2 828.934 224.667 830.134 221.867C831.334 218.934 833.334 211.6 834.667 205.334L836.934 194H866.801H896.667L897.067 266.267L897.334 338.534L866.801 338.934C825.201 339.467 826.667 338 826.667 380.667V408H754.001H681.334V368.934C681.334 326.267 682.267 319.2 690.267 303.6C693.734 296.534 703.334 283.334 707.201 280.134C708.934 278.667 708.801 277.867 705.867 273.334C694.401 256 697.067 232.267 711.734 222.134C716.134 218.934 719.201 218 725.867 217.6C736.267 216.934 742.001 218.667 749.067 224.8L754.534 229.334L757.867 226C762.801 221.067 771.734 217.334 778.801 217.334C784.934 217.334 785.067 217.334 788.134 210.267C790.934 204.134 791.334 200.934 791.734 180.667L792.267 158L754.267 158.4L716.267 158.8L715.867 175.067C715.334 190.267 715.067 192 711.067 200.134C705.867 210.667 697.467 218.8 686.934 223.734C680.267 226.8 677.201 227.334 663.067 227.734L646.667 228.267V266.134V303.867L663.734 304.267C674.134 304.534 680.534 305.2 680.401 306C680.267 306.667 678.534 311.2 676.667 315.867C674.667 320.534 672.801 327.467 672.401 331.467L671.601 338.667H642.001H612.401L611.334 267.467C610.801 228.267 610.801 195.6 611.334 194.8C611.867 193.867 621.734 193.334 640.667 193.334C656.401 193.334 670.667 192.8 672.534 192C674.401 191.334 676.934 189.2 678.267 187.067C680.667 183.6 680.934 176.267 681.334 123.6C681.334 123.067 714.001 122.667 754.001 122.667H826.667L827.467 126Z" fill="url(#paint0_linear_12538_86355)"/>
<path d="M1057.33 374.667V481.334H1109.07H1160.67V374.667V268.001H1109.07H1057.33V374.667Z" fill="white"/>
<path d="M1530.67 432.667V481.334H1581.33H1632V432.667V384.001H1581.33H1530.67V432.667Z" fill="white"/>
<path d="M2034.4 576.134C2000.93 580.667 1972.8 605.2 1964.67 636.667C1951.6 687.067 1981.2 734.667 2031.2 743.867C2058.27 748.8 2088.53 741.6 2106.13 726L2112.67 720.267L2106 713.467C2102.4 709.734 2098.93 706.667 2098.4 706.667C2097.73 706.667 2094 709.334 2090.13 712.534C2080 720.8 2070.13 724.267 2054.8 725.067C2040.27 725.734 2030.67 724 2019.6 718.534C1996.67 707.2 1984 686.4 1984 660C1984 640.134 1990.13 625.867 2004.4 612.4C2028.13 590 2069.73 588.8 2093.2 610L2098.27 614.534L2105.47 607.2L2112.67 599.734L2107.07 594.8C2099.73 588.267 2085.47 580.8 2075.33 578.134C2064.93 575.467 2045.73 574.534 2034.4 576.134Z" fill="white"/>
<path d="M2177.33 617.334C2172.53 617.867 2165.47 619.334 2161.6 620.401C2153.2 622.934 2138.67 630.534 2138.67 632.401C2138.67 633.067 2140.53 636.934 2142.8 640.801L2146.8 648.001L2152.27 644.534C2165.73 636.001 2187.33 632.401 2200.27 636.534C2214.27 641.201 2220.8 649.467 2221.6 664.001L2222 671.334L2194 672.134C2163.33 672.934 2156.67 674.267 2147.07 681.201C2135.2 689.734 2131.07 708.801 2137.87 723.334C2143.2 734.934 2153.2 741.334 2170.4 744.267C2187.73 747.201 2209.87 741.467 2218 731.734C2219.87 729.467 2221.87 728.134 2222.4 728.667C2222.93 729.067 2223.33 732.667 2223.33 736.401V743.334L2233.07 743.734L2242.67 744.134V699.601C2242.67 650.934 2242.27 647.467 2234.67 635.601C2225.6 621.201 2203.33 614.134 2177.33 617.334ZM2222.4 694.001C2223.07 704.401 2221.73 708.667 2215.33 715.734C2198 735.067 2162.13 732.934 2155.87 712.267C2154.53 707.601 2154.67 705.867 2156.67 700.667C2160.93 689.201 2169.07 686.667 2200 687.067L2222 687.334L2222.4 694.001Z" fill="white"/>
<path d="M2343.33 617.467C2332.4 619.067 2319.2 625.867 2313.87 632.933C2311.47 636 2309.2 638.133 2308.8 637.733C2308.4 637.2 2308 632.533 2308 627.067V617.333H2298H2288V680.667V744H2298.53H2309.2L2309.6 704.933C2310 668.667 2310.13 665.6 2312.8 660C2319.2 646.133 2330.13 638.8 2345.73 637.6L2354.67 636.933V626.533C2354.67 618.933 2354.27 616 2353.07 616.133C2352.13 616.267 2347.73 616.8 2343.33 617.467Z" fill="white"/>
<path d="M2423.73 617.467C2388 622.801 2365.07 659.334 2374 697.067C2380.67 725.067 2402.27 742.267 2434.53 744.801C2452.4 746.134 2475.2 739.201 2484.53 729.467C2488.8 725.067 2488.8 724.934 2480.8 715.467L2477.6 711.601L2471.33 716.401C2462.13 723.467 2453.6 726.001 2439.33 726.001C2428.8 725.867 2426.27 725.334 2418.67 721.867C2405.6 715.734 2396.4 704.667 2393.87 692.267L2393.07 688.001L2444.8 687.734L2496.67 687.334L2497.07 683.334C2498 675.734 2494.53 659.467 2490 650.001C2485.33 640.267 2477.73 631.334 2469.47 626.001C2458.53 618.801 2438.8 615.201 2423.73 617.467ZM2449.87 636.801C2461.87 640.934 2474.53 655.867 2476.27 668.001L2476.67 671.334L2434.8 671.734L2393.07 672.001L2394 667.067C2396.67 652.934 2408.27 640.267 2422.67 635.867C2428.53 634.134 2443.33 634.534 2449.87 636.801Z" fill="white"/>
<path d="M68.2672 676.933L68.6672 680.533L135.334 680.267C172.001 680.133 585.601 680 1054.4 680H1906.67V676.667V673.333H987.201H67.8672L68.2672 676.933Z" fill="white"/>
<defs>
<linearGradient id="paint0_linear_12538_86355" x1="753.791" y1="480.667" x2="753.791" y2="52.5216" gradientUnits="userSpaceOnUse">
<stop stop-color="#1D472E"/>
<stop offset="1" stop-color="#2E7249"/>
</linearGradient>
</defs>
</svg>
